<svg id="Layer_1" data-name="Layer 1" xmlns="http://www.w3.org/2000/svg" viewBox="0 0 2564 386"><defs><style>.cls-1{fill:#fff;}.cls-2{fill:#4c910a;}.cls-3{fill:#b5d6e8;}.cls-4{fill:#eefaff;}.cls-5{fill:#e5dabd;}.cls-6{fill:#9b8154;}.cls-7{fill:#d3712f;}.cls-8{fill:#3f3831;}.cls-9{fill:#f7ede7;}.cls-10{fill:#cdb265;}.cls-11{fill:#d13922;}.cls-12{fill:#cf732e;}.cls-13{fill:#b4540b;}.cls-14{fill:#cd3f33;}.cls-15{fill:#b22922;}.cls-16,.cls-19{fill:#499528;stroke:#337016;}.cls-16,.cls-17,.cls-19,.cls-29,.cls-35,.cls-36,.cls-38,.cls-39,.cls-40,.cls-41,.cls-51{stroke-miterlimit:10;}.cls-16,.cls-17{stroke-width:0.76px;}.cls-17{fill:#2b680f;stroke:#24540a;}.cls-18{fill:#f4e0df;}.cls-19{stroke-width:0.84px;}.cls-20{fill:#cdb369;}.cls-21{fill:#c1a04d;}.cls-22{fill:#a87e2a;}.cls-23{fill:#b79344;}.cls-24{fill:#d8a355;}.cls-25{fill:#d1b686;}.cls-26,.cls-28{fill:#fcf3de;}.cls-26{opacity:0.6;}.cls-27{fill:#bc9642;}.cls-29,.cls-40{fill:#8fc626;stroke:#80af17;}.cls-29{stroke-width:0.54px;}.cls-30{fill:#efe5b3;}.cls-31{fill:#f4aa6e;}.cls-32{fill:#faca9b;}.cls-33{fill:#a23230;}.cls-34{fill:#daadac;}.cls-35,.cls-38,.cls-45{fill:#eab229;}.cls-35,.cls-36,.cls-38,.cls-41{stroke:#ce9820;}.cls-35{stroke-width:0.56px;}.cls-36,.cls-41{fill:#d69f25;}.cls-36{stroke-width:0.59px;}.cls-37{fill:#f7e481;}.cls-38{stroke-width:1.03px;}.cls-39{fill:#c44e19;stroke:#a54119;stroke-width:1.12px;}.cls-40{stroke-width:1.25px;}.cls-41{stroke-width:1.08px;}.cls-42{fill:#000205;}.cls-43{fill:#535353;}.cls-44{fill:#cf9930;}.cls-46{fill:#ecc061;}.cls-47{fill:#7c8d97;}.cls-48{fill:#9bb1bc;}.cls-49{fill:#f4f2ef;}.cls-50{fill:#92979b;}.cls-51{fill:none;stroke:#000205;}.cls-52{fill:#fcfcfc;}.cls-53{fill:#21c966;}.cls-54{fill:#16a851;}</style></defs><title>Undercooked UI</title><rect class="cls-1" width="60" height="18" rx="9" ry="9"/><rect class="cls-2" x="80" width="56" height="16" rx="6" ry="6"/><path class="cls-1" d="M322,96H170a14,14,0,0,1-14-14V0H336V82A14,14,0,0,1,322,96Z"/><g id="Ingredients"><path class="cls-3" d="M502,96H370a14,14,0,0,1-14-14V0H516V82A14,14,0,0,1,502,96Z"/></g><path class="cls-4" d="M22,242a20,20,0,1,1,20-20A20,20,0,0,1,22,242Zm0-35.12A15.12,15.12,0,1,0,37.12,222,15.13,15.13,0,0,0,22,206.88Z"/><rect class="cls-4" x="19.78" y="214" width="4.44" height="16"/><rect class="cls-4" x="19.78" y="214" width="4.44" height="16" transform="translate(-200 244) rotate(-90)"/><path class="cls-5" d="M38.09,148.08a56.22,56.22,0,0,1-22.76-4.55C23,137.77,33,133.94,43.84,132.7a65.29,65.29,0,0,1,7.5-.43,56.17,56.17,0,0,1,22.75,4.55c-7.61,5.77-17.67,9.6-28.5,10.83a65.29,65.29,0,0,1-7.5.43Z"/><path class="cls-6" d="M51.34,133.27a56.11,56.11,0,0,1,20.74,3.78,58.37,58.37,0,0,1-26.6,9.61,65.65,65.65,0,0,1-7.39.42,56.11,56.11,0,0,1-20.74-3.78A58.49,58.49,0,0,1,44,133.69a65.65,65.65,0,0,1,7.39-.42m0-2a65.6,65.6,0,0,0-7.61.44c-12,1.37-22.6,5.81-30.2,12,0,0,0,.08,0,.12a56.54,56.54,0,0,0,24.57,5.29,67.86,67.86,0,0,0,7.61-.43c12-1.38,22.63-5.82,30.22-12,0,0,0-.07,0-.11a56.58,56.58,0,0,0-24.54-5.28Z"/><path class="cls-7" d="M71.06,123.37c-2-4.25-7.31-8.54-12.25-7.08-6.35,1.89-5.84,6.24-4.28,9.54s3.89,7.21,1.71,8.62-3.11-4.52-8.35-3.22c-3.12.77-3.77,3.47-3.79,5.54a60.82,60.82,0,0,0-25.9,9,61.25,61.25,0,0,0,27.5,2.89,61,61,0,0,0,26.12-9l-.2-.06c.25-3.25.35-6.52.45-9.77A14.18,14.18,0,0,0,71.06,123.37Z"/><path class="cls-8" d="M24.81,144.42S16,132.9,13.59,130.62s-7.68-9.56-11.93-5.82.79,8.6,2.84,10.34c4.65,3.93,11.54,9.39,10.75,8.75l9,5.93,4.46-1Z"/><path class="cls-5" d="M45.58,179a31.22,31.22,0,0,1-31.12-27.48,30.2,30.2,0,0,1-.1-6.23,58.14,58.14,0,0,0,23.73,4.79,67.15,67.15,0,0,0,7.73-.44c11.25-1.28,21.71-5.29,29.63-11.33a30.84,30.84,0,0,1-5.14,28.81,31.24,31.24,0,0,1-21.09,11.67,31.73,31.73,0,0,1-3.64.21Z"/><path class="cls-6" d="M74.9,140a29.75,29.75,0,0,1-5.37,26.54A30.25,30.25,0,0,1,49.11,177.8a32.13,32.13,0,0,1-3.53.2,30.22,30.22,0,0,1-30.13-26.6,29.89,29.89,0,0,1-.18-4.63,59.72,59.72,0,0,0,22.82,4.31,71.31,71.31,0,0,0,7.84-.44A62.19,62.19,0,0,0,74.9,140m1-3.4s0,.07,0,.11c-7.59,6.17-18.18,10.61-30.22,12a68,68,0,0,1-7.61.43,56.54,56.54,0,0,1-24.57-5.29s0-.08,0-.12A32.07,32.07,0,0,0,45.58,180a34.25,34.25,0,0,0,3.76-.21,32.11,32.11,0,0,0,28.44-35.5,31.43,31.43,0,0,0-1.9-7.74Z"/><path class="cls-9" d="M42.29,140.49c-3-1.56-16,3.52-13.29,5,.56.31,2.22-1.31,6.72-2.92C41,140.69,43.37,141.05,42.29,140.49Z"/><path class="cls-9" d="M49.73,132.6c-.41-.88-2.62.26-3.3,2.16-.62,1.73-.35,3.78.36,3.86s.17-1.88,1.06-3.69C48.63,133.32,50.07,133.31,49.73,132.6Z"/><path class="cls-9" d="M59,118.28c-1-.76-2.8,1.72-2.5,4.23.27,2.28,1.72,4.43,2.56,4.14s-.86-2.2-.88-4.73C58.2,119.69,59.81,118.89,59,118.28Z"/><path class="cls-5" d="M136.09,148.08a56.22,56.22,0,0,1-22.76-4.55c7.62-5.76,17.68-9.59,28.51-10.83a65.29,65.29,0,0,1,7.5-.43,56.17,56.17,0,0,1,22.75,4.55c-7.61,5.77-17.67,9.6-28.5,10.83a65.29,65.29,0,0,1-7.5.43Z"/><path class="cls-6" d="M149.34,133.27a56.11,56.11,0,0,1,20.74,3.78,58.37,58.37,0,0,1-26.6,9.61,65.65,65.65,0,0,1-7.39.42,56.11,56.11,0,0,1-20.74-3.78,58.49,58.49,0,0,1,26.6-9.61,65.65,65.65,0,0,1,7.39-.42m0-2a65.6,65.6,0,0,0-7.61.44c-12,1.37-22.6,5.81-30.2,12,0,0,0,.08,0,.12a56.54,56.54,0,0,0,24.57,5.29,67.86,67.86,0,0,0,7.61-.43c12-1.38,22.63-5.82,30.22-12,0,0,0-.07,0-.11a56.58,56.58,0,0,0-24.54-5.28Z"/><path class="cls-10" d="M169.06,123.37c-2-4.25-7.31-8.54-12.25-7.08-6.35,1.89-5.84,6.24-4.28,9.54s3.89,7.21,1.71,8.62-3.11-4.52-8.35-3.22c-3.12.77-3.77,3.47-3.79,5.54a60.82,60.82,0,0,0-25.9,9,63.73,63.73,0,0,0,53.62-6.13l-.2-.06c.25-3.25.35-6.52.45-9.77A14.18,14.18,0,0,0,169.06,123.37Z"/><path class="cls-8" d="M122.81,144.42s-8.84-11.52-11.22-13.8-7.68-9.56-11.93-5.82.79,8.6,2.84,10.34c4.65,3.93,11.54,9.39,10.75,8.75l9,5.93,4.46-1Z"/><path class="cls-5" d="M143.58,179a31.22,31.22,0,0,1-31.12-27.48,30.2,30.2,0,0,1-.1-6.23,58.14,58.14,0,0,0,23.73,4.79,67.15,67.15,0,0,0,7.73-.44c11.25-1.28,21.71-5.29,29.63-11.33a30.84,30.84,0,0,1-5.14,28.81,31.24,31.24,0,0,1-21.09,11.67,31.73,31.73,0,0,1-3.64.21Z"/><path class="cls-6" d="M172.9,140a29.75,29.75,0,0,1-5.37,26.54,30.25,30.25,0,0,1-20.42,11.31,32.13,32.13,0,0,1-3.53.2,30.22,30.22,0,0,1-30.13-26.6,29.89,29.89,0,0,1-.18-4.63,59.72,59.72,0,0,0,22.82,4.31,71.31,71.31,0,0,0,7.84-.44,62.19,62.19,0,0,0,29-10.69m1-3.4s0,.07,0,.11c-7.59,6.17-18.18,10.61-30.22,12a68,68,0,0,1-7.61.43,56.54,56.54,0,0,1-24.57-5.29s0-.08,0-.12A32.07,32.07,0,0,0,143.58,180a34.25,34.25,0,0,0,3.76-.21,32.11,32.11,0,0,0,28.44-35.5,31.43,31.43,0,0,0-1.9-7.74Z"/><path class="cls-9" d="M140.29,140.49c-3-1.56-16,3.52-13.29,5,.56.31,2.22-1.31,6.72-2.92C139,140.69,141.37,141.05,140.29,140.49Z"/><path class="cls-9" d="M147.73,132.6c-.41-.88-2.62.26-3.3,2.16-.62,1.73-.35,3.78.36,3.86s.17-1.88,1.06-3.69C146.63,133.32,148.07,133.31,147.73,132.6Z"/><path class="cls-9" d="M157,118.28c-.95-.76-2.8,1.72-2.5,4.23.27,2.28,1.72,4.43,2.56,4.14s-.86-2.2-.88-4.73C156.2,119.69,157.81,118.89,157,118.28Z"/><path class="cls-5" d="M234.09,148.08a56.22,56.22,0,0,1-22.76-4.55c7.62-5.76,17.68-9.59,28.51-10.83a65.29,65.29,0,0,1,7.5-.43,56.17,56.17,0,0,1,22.75,4.55c-7.61,5.77-17.67,9.6-28.5,10.83a65.29,65.29,0,0,1-7.5.43Z"/><path class="cls-6" d="M247.34,133.27a56.11,56.11,0,0,1,20.74,3.78,58.37,58.37,0,0,1-26.6,9.61,65.65,65.65,0,0,1-7.39.42,56.11,56.11,0,0,1-20.74-3.78,58.49,58.49,0,0,1,26.6-9.61,65.65,65.65,0,0,1,7.39-.42m0-2a65.6,65.6,0,0,0-7.61.44c-12,1.37-22.6,5.81-30.2,12,0,0,0,.08,0,.12a56.54,56.54,0,0,0,24.57,5.29,67.86,67.86,0,0,0,7.61-.43c12-1.38,22.63-5.82,30.22-12,0,0,0-.07,0-.11a56.58,56.58,0,0,0-24.54-5.28Z"/><path class="cls-11" d="M267.06,123.37c-2-4.25-7.31-8.54-12.25-7.08-6.35,1.89-5.84,6.24-4.28,9.54s3.89,7.21,1.71,8.62-3.11-4.52-8.35-3.22c-3.12.77-3.77,3.47-3.79,5.54a60.82,60.82,0,0,0-25.9,9,63.73,63.73,0,0,0,53.62-6.13l-.2-.06c.25-3.25.35-6.52.45-9.77A14.18,14.18,0,0,0,267.06,123.37Z"/><path class="cls-8" d="M220.81,144.42s-8.84-11.52-11.22-13.8-7.68-9.56-11.93-5.82.79,8.6,2.84,10.34c4.65,3.93,11.54,9.39,10.75,8.75l9,5.93,4.46-1Z"/><path class="cls-5" d="M241.58,179a31.22,31.22,0,0,1-31.12-27.48,30.2,30.2,0,0,1-.1-6.23,58.14,58.14,0,0,0,23.73,4.79,67.15,67.15,0,0,0,7.73-.44c11.25-1.28,21.71-5.29,29.63-11.33a30.84,30.84,0,0,1-5.14,28.81,31.24,31.24,0,0,1-21.09,11.67,31.73,31.73,0,0,1-3.64.21Z"/><path class="cls-6" d="M270.9,140a29.75,29.75,0,0,1-5.37,26.54,30.25,30.25,0,0,1-20.42,11.31,32.13,32.13,0,0,1-3.53.2,30.22,30.22,0,0,1-30.13-26.6,29.89,29.89,0,0,1-.18-4.63,59.72,59.72,0,0,0,22.82,4.31,71.31,71.31,0,0,0,7.84-.44,62.19,62.19,0,0,0,29-10.69m1-3.4s0,.07,0,.11c-7.59,6.17-18.18,10.61-30.22,12a68,68,0,0,1-7.61.43,56.54,56.54,0,0,1-24.57-5.29s0-.08,0-.12A32.07,32.07,0,0,0,241.58,180a34.25,34.25,0,0,0,3.76-.21,32.11,32.11,0,0,0,28.44-35.5,31.43,31.43,0,0,0-1.9-7.74Z"/><path class="cls-9" d="M238.29,140.49c-3-1.56-16,3.52-13.29,5,.56.31,2.22-1.31,6.72-2.92C237,140.69,239.37,141.05,238.29,140.49Z"/><path class="cls-9" d="M245.73,132.6c-.41-.88-2.62.26-3.3,2.16-.62,1.73-.35,3.78.36,3.86s.17-1.88,1.06-3.69C244.63,133.32,246.07,133.31,245.73,132.6Z"/><path class="cls-9" d="M255,118.28c-.95-.76-2.8,1.72-2.5,4.23.27,2.28,1.72,4.43,2.56,4.14s-.86-2.2-.88-4.73C254.2,119.69,255.81,118.89,255,118.28Z"/><circle class="cls-1" cx="478" cy="138" r="20"/><path class="cls-12" d="M477.6,153.37a16.1,16.1,0,0,1-6-1.46c-2.91-1.29-7.95-4.27-9-9.81a9.16,9.16,0,0,1,.44-5.31c1.17-2.71,3.85-4.48,6.72-6.19a21.79,21.79,0,0,0,5.81-4.42A13,13,0,0,0,478,121.3a13,13,0,0,0,2.48,4.88,21.79,21.79,0,0,0,5.81,4.42c2.87,1.71,5.55,3.48,6.72,6.19a9.16,9.16,0,0,1,.44,5.31,11.45,11.45,0,0,1-1.64,4l-.13.2a15.7,15.7,0,0,1-6.15,5,17,17,0,0,1-7.59,2Z"/><path class="cls-13" d="M478,122.64a12.94,12.94,0,0,0,2.17,3.79,22,22,0,0,0,5.91,4.52c2.82,1.68,5.44,3.4,6.56,6a8.73,8.73,0,0,1,.41,5.07,11.1,11.1,0,0,1-1.58,3.9l-.13.2,0,.06a15.23,15.23,0,0,1-5.95,4.83,16.56,16.56,0,0,1-7.41,2h-.33a15.73,15.73,0,0,1-5.87-1.42c-2.84-1.26-7.75-4.16-8.79-9.52a8.73,8.73,0,0,1,.41-5.07c1.12-2.6,3.74-4.32,6.56-6a22,22,0,0,0,5.91-4.52,12.94,12.94,0,0,0,2.17-3.79m0-3.73a12.61,12.61,0,0,1-2.79,7,21.32,21.32,0,0,1-5.71,4.34c-2.73,1.62-5.62,3.45-6.88,6.37a9.47,9.47,0,0,0-.47,5.55c.94,4.82,5,8.2,9.26,10.1a16.54,16.54,0,0,0,6.18,1.49h.35a17.49,17.49,0,0,0,7.77-2,16.15,16.15,0,0,0,6.26-5.11l0-.06.14-.21a11.94,11.94,0,0,0,1.7-4.18,9.47,9.47,0,0,0-.47-5.55c-1.26-2.92-4.15-4.75-6.88-6.37a21.32,21.32,0,0,1-5.71-4.34,12.61,12.61,0,0,1-2.79-7Z"/><path class="cls-13" d="M473.08,131.76s-5.1,2.55-5.33,7.65c-.22,4.78,3.48,8.45,4.17,8.34s-1.62-4.64-1.62-8.34S473.77,132.69,473.08,131.76Z"/><path class="cls-13" d="M478.17,130.6a2,2,0,0,0-.69,1,14.57,14.57,0,0,0-.47,2.08,26.84,26.84,0,0,0-.4,4.74,33.74,33.74,0,0,0,.42,5.31c.1.66.44,4.37,1.29,4.41a.68.68,0,0,0,.51-.35,3.57,3.57,0,0,0,.34-1.92c-.06-4.87-.25-9.75-.55-14.61C478.58,130.62,478.39,130.48,478.17,130.6Z"/><path class="cls-13" d="M482.89,131.76s5.09,2.55,5.33,7.65c.21,4.78-3.48,8.45-4.17,8.34s1.62-4.64,1.62-8.34S482.19,132.69,482.89,131.76Z"/><path class="cls-13" d="M477.59,153.77a13.87,13.87,0,0,1-2.49-.29v.69a1.1,1.1,0,0,0,1.1,1.1h3.6a1.1,1.1,0,0,0,1.1-1.1v-.71A14,14,0,0,1,477.59,153.77Z"/><circle class="cls-1" cx="542" cy="138" r="20"/><path class="cls-12" d="M541.39,152a13.82,13.82,0,1,1,13.82-13.82A13.84,13.84,0,0,1,541.39,152Z"/><path class="cls-13" d="M541.39,124.9a13.32,13.32,0,1,1-13.32,13.32,13.33,13.33,0,0,1,13.32-13.32m0-1a14.33,14.33,0,1,0,14.32,14.32,14.32,14.32,0,0,0-14.32-14.32Z"/><path class="cls-13" d="M539.67,124.33c2.25-.9,7.3.44,10.39-.5a24.08,24.08,0,0,0,6.87-4l-3.15,4.58,2.58-1.43a10.5,10.5,0,0,0-2,4.3c-.28,2.14.79,6.92.79,6.92a1.64,1.64,0,0,0-.92-.85c-.66-.21-.65-.27-3.23,1.73-4.25,3.3-7.12,4.26-7.45,4-.73-.54,3.84-2.21,5.59-5.87,1.43-3,1.67-5,0-5.87-2-1-5.16-1.72-7.74-.29-3.38,1.88-8,7.16-8,7.16C532.51,133.64,536.78,125.49,539.67,124.33Z"/><path class="cls-13" d="M543.67,147.23a17.86,17.86,0,0,1-3.82,2.13,23,23,0,0,1-4.38,1.25c-.75.14-2.41.61-3.1.07-1.35-1-1.34-3.36-1.6-4.89a9.75,9.75,0,0,1,1.21-6.9,9.38,9.38,0,0,1,3.1-3,9.17,9.17,0,0,1,2-.91c1.3-.42,1.23.56.48,1.3-2.21,2.18-4.3,4.73-4.84,7.8-.29,1.62-.07,4.2,2,4.39a4.77,4.77,0,0,0,2-.35,20.9,20.9,0,0,0,6.16-3.66c.94-.78,1.83-1.6,2.7-2.45.5-.48,2.31-3.19,2.9-1.41a1.88,1.88,0,0,1-.15,1.27,9.57,9.57,0,0,1-1.57,2.5A17.22,17.22,0,0,1,543.67,147.23Z"/><circle class="cls-1" cx="606" cy="138" r="20"/><path class="cls-14" d="M606,151.77c-8.29,0-15-5.49-15-12.24s6.74-12.24,15-12.24,15,5.49,15,12.24S614.29,151.77,606,151.77Z"/><path class="cls-15" d="M606,127.71c8.06,0,14.61,5.3,14.61,11.82s-6.55,11.82-14.61,11.82-14.61-5.31-14.61-11.82,6.55-11.82,14.61-11.82m0-.84c-8.54,0-15.45,5.67-15.45,12.66s6.91,12.66,15.45,12.66,15.45-5.67,15.45-12.66-6.91-12.66-15.45-12.66Z"/><polygon class="cls-16" points="602.91 132.51 606.6 137.28 608.87 132.51 615.16 132.51 610.83 129.04 611.26 125.56 604.97 127.52 598.46 125.46 599.87 129.9 597.16 134.78 602.91 132.51"/><polygon class="cls-17" points="603.78 124.26 606.27 124.26 606.27 130.77 604.32 129.69 603.78 124.26"/><path class="cls-18" d="M594.83,139.12a5.75,5.75,0,0,1,.76-2.87.54.54,0,0,0-.77-.72,3.92,3.92,0,0,0-1.94,3.27,3.72,3.72,0,0,0,1.3,2.77.58.58,0,0,0,1-.6A5.69,5.69,0,0,1,594.83,139.12Z"/><ellipse class="cls-18" cx="596.2" cy="144.58" rx="0.6" ry="1.41" transform="translate(16.03 344) rotate(-32.6)"/><circle class="cls-1" cx="670" cy="138" r="20"/><ellipse class="cls-14" cx="670" cy="139.25" rx="15.46" ry="13.73"/><path class="cls-15" d="M670,126c8.26,0,15,5.94,15,13.25s-6.73,13.25-15,13.25-15-5.95-15-13.25S661.74,126,670,126m0-1c-8.81,0-15.94,6.36-15.94,14.21s7.13,14.2,15.94,14.2,15.94-6.36,15.94-14.2S678.81,125,670,125Z"/><path class="cls-19" d="M667.72,120.73V125a8.55,8.55,0,0,0-3.67,1,11.5,11.5,0,0,0-3.88,2.69,15.33,15.33,0,0,0,2.88.72,12.38,12.38,0,0,0,3.35-.48s-2.15,1.08-2.51,2.64a40.28,40.28,0,0,0-.6,4.19,11.76,11.76,0,0,0,3.83-2.16A9,9,0,0,0,669,130.2a16.69,16.69,0,0,0-.84,4.43c.12,1.44,1.31,4,1.8,4s2-1.26,2.52-3.72a7.09,7.09,0,0,0-.48-3.47,12.85,12.85,0,0,0,2.76,1.79c1.19.48,3.71,1.56,4.07,1.08,0,0,.24-1.32-1.44-3a23.67,23.67,0,0,0-2.39-2,31,31,0,0,0,3.35.48,5.89,5.89,0,0,0,2.8-.59s-3.75-2.69-5.85-3.27L672.4,125l-.24-4.31Z"/><path class="cls-18" d="M658.73,135.47c.7.21.36,3.6.36,3.6s.6,2.52-.36,2.64-1.92-1.2-1.92-3.12C656.81,137.13,657.53,135.11,658.73,135.47Z"/><path class="cls-18" d="M658.73,143.86c.67-.92,2.4,1,3.12,1.68a1.93,1.93,0,0,1,.48,2.4c-.48.6-1.92-.12-2.76-1.32S658.31,144.45,658.73,143.86Z"/><circle class="cls-1" cx="734" cy="138" r="20"/><ellipse class="cls-20" cx="734" cy="134.26" rx="13.84" ry="10.51"/><path class="cls-21" d="M734,124c7.47,0,13.55,4.58,13.55,10.22s-6.08,10.22-13.55,10.22-13.55-4.58-13.55-10.22S726.53,124,734,124m0-.59c-7.8,0-14.13,4.84-14.13,10.81s6.33,10.81,14.13,10.81,14.13-4.84,14.13-10.81S741.8,123.45,734,123.45Z"/><path class="cls-22" d="M734,144.77a15.56,15.56,0,0,1-11-4.16,3.47,3.47,0,0,1-.1-.78c0-3.23,5-5.86,11.13-5.86s11.13,2.63,11.13,5.86a3.47,3.47,0,0,1-.1.78A15.56,15.56,0,0,1,734,144.77Z"/><path class="cls-23" d="M734,134.26c5.87,0,10.84,2.55,10.84,5.57a3.38,3.38,0,0,1-.07.63,16.44,16.44,0,0,1-21.54,0,3.38,3.38,0,0,1-.07-.63c0-3,5-5.57,10.84-5.57m0-.58c-6.31,0-11.42,2.75-11.42,6.15a3.72,3.72,0,0,0,.13.93,16.94,16.94,0,0,0,22.58,0,3.72,3.72,0,0,0,.13-.93c0-3.4-5.11-6.15-11.42-6.15Z"/><path class="cls-20" d="M734,152.25c-2.82,0-5.33-1.4-5.4-2.55a2.12,2.12,0,0,1,.46-1.35,3.85,3.85,0,0,0,.7-2.2,4.05,4.05,0,0,0-.59-2.12,3.81,3.81,0,0,1-.57-1.89,3.48,3.48,0,0,1,2.73-3.35l.21,0a19.94,19.94,0,0,1,2.37-.22H734c2.42.05,5,1.43,5.29,2.84a4.14,4.14,0,0,1-.52,2.27,4.79,4.79,0,0,0-.57,2.72,6.25,6.25,0,0,0,.5,1.48,2.53,2.53,0,0,1,.25,1.74C738.73,151.26,736.25,152.25,734,152.25Z"/><path class="cls-21" d="M733.91,138.83H734c2.26,0,4.74,1.34,5,2.61a3.92,3.92,0,0,1-.5,2.1,5,5,0,0,0-.58,2.89,6.5,6.5,0,0,0,.51,1.54,2.19,2.19,0,0,1,.23,1.58c-.21,1.35-2.28,2.41-4.7,2.41-2.74,0-5.06-1.38-5.11-2.28a2,2,0,0,1,.41-1.18,4.08,4.08,0,0,0,.75-2.35,4.32,4.32,0,0,0-.63-2.26,3.66,3.66,0,0,1-.53-1.76,3.21,3.21,0,0,1,2.48-3l.23,0a19.18,19.18,0,0,1,2.31-.22m0-.58a21.6,21.6,0,0,0-2.61.25,3.76,3.76,0,0,0-3,3.66c.08,1.91,1.16,2.16,1.16,4s-1.25,2.24-1.16,3.57,2.74,2.83,5.69,2.83c2.5,0,5-1.12,5.28-2.91.25-1.58-.42-1.67-.75-3.33s1.41-3.41,1.08-5-3.06-3-5.57-3.07Z"/><path class="cls-24" d="M734,137.5a.21.21,0,0,1-.21-.21v-2a.21.21,0,0,1,.42,0v2A.21.21,0,0,1,734,137.5Z"/><path class="cls-25" d="M734,134.8a.5.5,0,0,0-.5.5v2a.5.5,0,0,0,1,0v-2a.5.5,0,0,0-.5-.5Z"/><path class="cls-24" d="M731,137.67a.22.22,0,0,1-.2-.16l-.51-1.92a.22.22,0,0,1,.14-.26h0a.22.22,0,0,1,.24.15l.51,1.93a.2.2,0,0,1-.14.25Z"/><path class="cls-25" d="M730.52,135h-.13a.49.49,0,0,0-.35.61l.51,1.93a.5.5,0,0,0,.48.37l.13,0h0a.5.5,0,0,0,.36-.61L731,135.4a.49.49,0,0,0-.48-.36Z"/><path class="cls-24" d="M728.77,138.66a.22.22,0,0,1-.16-.07l-1.3-1.51a.23.23,0,0,1,0-.3.21.21,0,0,1,.13-.05.24.24,0,0,1,.16.07l1.3,1.52a.17.17,0,0,1,.05.15.21.21,0,0,1-.07.14A.21.21,0,0,1,728.77,138.66Z"/><path class="cls-25" d="M727.46,136.44a.49.49,0,0,0-.32.12h0a.51.51,0,0,0,0,.71l1.3,1.51a.5.5,0,0,0,.38.17.49.49,0,0,0,.32-.12h0a.49.49,0,0,0,0-.7l-1.3-1.51a.49.49,0,0,0-.38-.18Z"/><path class="cls-24" d="M726.78,140.68a.16.16,0,0,1-.12,0l-1.58-1.22a.21.21,0,0,1,0-.29.21.21,0,0,1,.29,0l1.58,1.22a.29.29,0,0,1,.08.14.19.19,0,0,1,0,.15A.19.19,0,0,1,726.78,140.68Z"/><path class="cls-25" d="M725.21,138.76a.53.53,0,0,0-.4.19.49.49,0,0,0,.09.7l1.58,1.22a.48.48,0,0,0,.7-.09.5.5,0,0,0-.09-.7l-1.58-1.22a.49.49,0,0,0-.3-.1Z"/><path class="cls-24" d="M736.91,137.66a.2.2,0,0,1-.14-.25l.51-1.93a.21.21,0,0,1,.2-.15c.17,0,.23.15.2.26l-.51,1.92a.22.22,0,0,1-.2.16Z"/><path class="cls-25" d="M737.48,135a.49.49,0,0,0-.48.36l-.52,1.93a.5.5,0,0,0,.36.61l.13,0a.5.5,0,0,0,.48-.37l.51-1.93a.49.49,0,0,0-.35-.61Z"/><path class="cls-24" d="M739.23,138.66a.21.21,0,0,1-.13,0,.21.21,0,0,1-.07-.14.17.17,0,0,1,.05-.15l1.3-1.52a.24.24,0,0,1,.16-.07.2.2,0,0,1,.13.05.23.23,0,0,1,0,.3l-1.3,1.51a.22.22,0,0,1-.16.07Z"/><path class="cls-25" d="M740.54,136.44a.49.49,0,0,0-.38.18l-1.3,1.51a.49.49,0,0,0,0,.7h0a.5.5,0,0,0,.7-.05l1.3-1.51a.51.51,0,0,0,0-.71h0a.49.49,0,0,0-.32-.12Z"/><path class="cls-24" d="M741.22,140.68a.19.19,0,0,1-.17-.08.19.19,0,0,1,0-.15.29.29,0,0,1,.08-.14l1.58-1.22a.21.21,0,0,1,.29,0,.21.21,0,0,1,0,.29l-1.58,1.22A.16.16,0,0,1,741.22,140.68Z"/><path class="cls-25" d="M742.79,138.76a.49.49,0,0,0-.3.1l-1.58,1.22a.5.5,0,0,0-.09.7.48.48,0,0,0,.7.09l1.58-1.22a.49.49,0,0,0,.09-.7.53.53,0,0,0-.4-.19Z"/><path class="cls-26" d="M727.53,127.14s.3.14,0,.67-1.16.73-1.68,2.11,0,4.36-1.39,4.39-1.61-1.64-1.2-3.21a5.34,5.34,0,0,1,2.25-3.42A2.43,2.43,0,0,1,727.53,127.14Z"/><circle class="cls-1" cx="798" cy="138" r="20"/><path class="cls-27" d="M797,152.2a6,6,0,1,1,0-12h2a6,6,0,0,1,0,12Z"/><path class="cls-23" d="M799,140.51a5.67,5.67,0,1,1,0,11.33h-2a5.67,5.67,0,1,1,0-11.33h2m0-.7h-2a6.39,6.39,0,0,0-6.37,6.37h0a6.39,6.39,0,0,0,6.37,6.37h2a6.39,6.39,0,0,0,6.37-6.37h0a6.39,6.39,0,0,0-6.37-6.37Z"/><path class="cls-20" d="M798,145.68c-8.91,0-11.27-2.21-13.25-4.88-1.22-1.63-2.54-4.3,0-8.63,2.39-4,7-8.36,12.67-8.36h1.12c5.7,0,10.28,4.32,12.67,8.36,2.56,4.33,1.24,7,0,8.63C809.27,143.47,806.91,145.68,798,145.68Z"/><path class="cls-21" d="M797.44,124.16h1.12c5.55,0,10,4.23,12.37,8.19s1.3,6.56,0,8.25c-1.92,2.58-4.23,4.73-13,4.73s-11-2.15-13-4.73c-1.26-1.69-2.39-4.15,0-8.25s6.82-8.19,12.37-8.19m1.12-.71-.56,0-.56,0c-5.77,0-10.45,4.27-13,8.54s-1.34,7.21,0,9c2.16,2.9,4.82,5,13.54,5s11.38-2.12,13.54-5c1.34-1.81,2.6-4.61,0-9s-7.21-8.54-13-8.54Z"/><path class="cls-28" d="M794.68,127.73s.51.2,0,1.1-1.8,1.31-2.5,3.61.4,7.12-1.81,7.32-2.81-2.51-2.3-5.11a8.77,8.77,0,0,1,3.31-5.82C793.28,127.33,794.68,127.73,794.68,127.73Z"/><circle class="cls-1" cx="926" cy="138" r="20"/><path class="cls-29" d="M926.31,119.82a2.13,2.13,0,0,0-1.47.71,5.16,5.16,0,0,0-1,2.22c-.24.86-.48,2.26-1.47,2.58-.71.22-1.44-.25-2.18-.24a2,2,0,0,0-1.72,1.36,2.79,2.79,0,0,0,.3,2.25,9,9,0,0,1,.73,1.23,1.17,1.17,0,0,1-.2,1.32c-.35.29-.86.24-1.29.39a1.72,1.72,0,0,0-1,1.8,2.76,2.76,0,0,0,1.16,1.84,4.77,4.77,0,0,1,1,.85.92.92,0,0,1,0,1.22c-.36.31-.9.15-1.37.19a1.88,1.88,0,0,0-1.5,2,3.5,3.5,0,0,0,1.37,2.34,1.84,1.84,0,0,1,.72.87,1.26,1.26,0,0,1-.5,1.18c-.34.29-.76.49-1.09.8a2.89,2.89,0,0,0-.44,3.33,5.65,5.65,0,0,0,2.62,2.37,12.45,12.45,0,0,1,1.88,1c.95.71,1,1.69,1.32,2.75a2.71,2.71,0,0,0,3,2c1.73-.17,3.71-.36,5-1.7,2.11-2.22,1-6,3.6-7.91a7.59,7.59,0,0,0,1.78-1.31,3.23,3.23,0,0,0,.5-1.9c0-.66-.11-1.43-.7-1.71a2.42,2.42,0,0,0-1.41,0c-.48.07-1.07,0-1.25-.46s.4-1.11.92-1.47A3.39,3.39,0,0,0,935,138a1.68,1.68,0,0,0-.72-2c-.48-.23-1.09-.17-1.49-.52a1.5,1.5,0,0,1,.07-1.91,7.08,7.08,0,0,0,1.21-1.69,1.88,1.88,0,0,0-1.52-2.38c-.4,0-.94,0-1-.42s.17-.57.38-.79a3.53,3.53,0,0,0,1-3.13,2.32,2.32,0,0,0-2.54-1.78c-.64.13-1.43.54-1.85,0a1.15,1.15,0,0,1-.21-.51c-.22-1.07-.22-2.4-1.18-2.93A1.4,1.4,0,0,0,926.31,119.82Z"/><path class="cls-30" d="M926,126.49s-.93,11.64-1.08,15.31-.75,14.14-.19,14.22a6.19,6.19,0,0,0,2.56-.32c.3-.32,0-11.11-.28-15.87C926.82,136.65,926,126.49,926,126.49Z"/><path class="cls-30" d="M925.55,132.55a6.67,6.67,0,0,0-1.25-1.84c-.82-.83-2.37-1.52-2.56-1.32s1.44,1.58,2.13,2.6a13.85,13.85,0,0,1,1.49,3.09Z"/><path class="cls-30" d="M926.53,133a10.6,10.6,0,0,1,1.64-2c.81-.67,1.66-1.09,1.85-.83s-.51.79-1.37,1.84-2,2.83-2,2.83Z"/><path class="cls-30" d="M925.2,137.45a3.06,3.06,0,0,0-1.16-1.83,3.35,3.35,0,0,0-2.45-.91c-.26.12,1.25,1,1.9,2a27.5,27.5,0,0,1,1.56,3.06Z"/><path class="cls-30" d="M926.9,137.93a4.74,4.74,0,0,1,1.4-2.39c.9-.8,2-1.67,2.38-1.22s-.78,1-1.89,2.16a9.42,9.42,0,0,0-1.68,3.37Z"/><path class="cls-30" d="M924.89,142.93a5.66,5.66,0,0,0-1.52-2.77c-1.23-1.21-2.12-1.57-2.41-1.22s1,.94,1.83,2a29.26,29.26,0,0,1,2,3.83Z"/><path class="cls-30" d="M927.15,141.9a8.31,8.31,0,0,1,1.5-1.83c.8-.66,1.77-.83,2-.48s-1.14.85-2.07,1.81a7.56,7.56,0,0,0-1.36,3Z"/><path class="cls-30" d="M927.34,147.59a8.82,8.82,0,0,1,1.54-2.69c.93-1,2-1.6,2.31-1.31s-.56.68-1.9,2.23a12.06,12.06,0,0,0-1.9,4C927.38,149.7,927.34,147.59,927.34,147.59Z"/><path class="cls-30" d="M924.71,147.54a7.49,7.49,0,0,0-1.48-2.14c-1.22-1.36-2.45-2.56-2.9-2.16s1.53,1.88,2.17,2.84,2.15,3.34,2.15,3.34Z"/><circle class="cls-1" cx="990" cy="138" r="20"/><path class="cls-31" d="M994.24,124.83a8.5,8.5,0,0,1,.91-.09,11.6,11.6,0,0,1,11.93,9.47c.88,4.9-1.32,10.07-5,13.39a22.14,22.14,0,0,1-13.7,5.2c-3.59.18-7.42-.42-10.15-2.75a9.41,9.41,0,0,1,2.2-15.68c1.61-.74,3.42-1,5-1.86C989,130.56,989.91,125.56,994.24,124.83Z"/><path class="cls-32" d="M992,123.28a6.23,6.23,0,0,1,.9-.09,11.6,11.6,0,0,1,11.93,9.47c.89,4.9-1.31,10.06-5,13.39a22.09,22.09,0,0,1-13.7,5.2c-3.58.17-7.42-.42-10.14-2.76a9.4,9.4,0,0,1,2.19-15.67c1.62-.74,3.42-1,5-1.86C986.8,129,987.7,124,992,123.28Z"/><path class="cls-33" d="M991.37,126.12a4.51,4.51,0,0,1,2.87-.33c3.92.58,7.25,5.16,7.49,9a12,12,0,0,1-3.75,9.13,17,17,0,0,1-9,4.37,14,14,0,0,1-8-.68,8.46,8.46,0,0,1-5.07-5.95,6.09,6.09,0,0,1,3.42-6.67c2.5-1,5.73,0,7.71-1.85C989.25,131.06,989.08,127.36,991.37,126.12Z"/><circle class="cls-34" cx="994.84" cy="134.24" r="2.95"/><circle class="cls-33" cx="994.84" cy="134.24" r="1.03"/><circle class="cls-1" cx="862" cy="138" r="20"/><ellipse class="cls-35" cx="862" cy="141.21" rx="16.36" ry="10.74"/><ellipse class="cls-36" cx="862" cy="136.85" rx="15.86" ry="9.99"/><ellipse class="cls-35" cx="862" cy="134.05" rx="15.86" ry="9.99"/><ellipse class="cls-37" cx="861.49" cy="126.39" rx="1.54" ry="0.84"/><ellipse class="cls-37" cx="867.29" cy="128.36" rx="1.54" ry="0.84"/><ellipse class="cls-37" cx="862.05" cy="130.98" rx="1.54" ry="0.84"/><ellipse class="cls-37" cx="856.15" cy="134.44" rx="1.54" ry="0.84"/><ellipse class="cls-37" cx="850.35" cy="131.82" rx="1.54" ry="0.84"/><ellipse class="cls-37" cx="868.79" cy="133.69" rx="1.54" ry="0.84"/><ellipse class="cls-37" cx="856.15" cy="128.92" rx="1.54" ry="0.84"/><ellipse class="cls-37" cx="862.98" cy="136.13" rx="1.54" ry="0.84"/><ellipse class="cls-37" cx="872.72" cy="130.98" rx="1.54" ry="0.84"/><ellipse class="cls-38" cx="333.39" cy="158.22" rx="30.14" ry="19.78"/><ellipse class="cls-39" cx="333.39" cy="151.92" rx="30.09" ry="18.95"/><path class="cls-40" d="M300.22,141.52a3.43,3.43,0,0,0-.92,4.46c1.29,1.77,4.46,1.64,5.25,3.68.39,1,0,2.09,0,3.15a5.13,5.13,0,0,0,2.62,4.62c2.56,1.38,6,.44,8.34,2.19,1.29,1,1.95,2.57,3.15,3.64,1.91,1.71,4.84,1.71,7.27.93,1.95-.62,4-1.68,5.91-.9a17.08,17.08,0,0,1,2.84,2.08,6.76,6.76,0,0,0,5.33.78,12.15,12.15,0,0,0,4.83-2.66c1.51-1.29,3.13-2.91,5.1-2.69,1.24.13,2.3,1,3.53,1.21a4.29,4.29,0,0,0,3.83-1.55,7.82,7.82,0,0,0,1.65-3.92,5,5,0,0,1,.57-2c1.26-1.92,4.45-.81,6.35-2.1a3.34,3.34,0,0,0,1.3-3.24,4.85,4.85,0,0,0-1.91-3c-.62-.48-1.43-1.13-1.12-1.84.13-.31.43-.49.66-.72a2.52,2.52,0,0,0,.08-3.13,5.18,5.18,0,0,0-2.8-1.81c-5.07-1.6-10.47.38-15.67,1.48a47.34,47.34,0,0,1-27.17-2.31c-2.32-.92-4.93-2-7.21-1a12.51,12.51,0,0,0-2.2,1.52,9.79,9.79,0,0,1-4.9,2.13C303.21,140.54,301.67,140.38,300.22,141.52Z"/><ellipse class="cls-41" cx="333.39" cy="141.58" rx="29.22" ry="18.41"/><ellipse class="cls-38" cx="333.39" cy="136.41" rx="29.22" ry="18.41"/><ellipse class="cls-37" cx="332.44" cy="122.31" rx="2.84" ry="1.55"/><ellipse class="cls-37" cx="343.13" cy="125.93" rx="2.84" ry="1.55"/><ellipse class="cls-37" cx="333.47" cy="130.76" rx="2.84" ry="1.55"/><ellipse class="cls-37" cx="322.61" cy="137.14" rx="2.84" ry="1.55"/><ellipse class="cls-37" cx="311.92" cy="132.31" rx="2.84" ry="1.55"/><ellipse class="cls-37" cx="345.89" cy="135.76" rx="2.84" ry="1.55"/><ellipse class="cls-37" cx="322.61" cy="126.97" rx="2.84" ry="1.55"/><ellipse class="cls-37" cx="335.2" cy="140.24" rx="2.84" ry="1.55"/><ellipse class="cls-37" cx="353.13" cy="130.76" rx="2.84" ry="1.55"/><circle class="cls-1" cx="414" cy="138" r="20"/><circle class="cls-12" cx="413.45" cy="138.06" r="12.44"/><path class="cls-13" d="M413.45,126.08a12,12,0,1,1-12,12,12,12,0,0,1,12-12m0-.91a12.9,12.9,0,1,0,12.89,12.89,12.9,12.9,0,0,0-12.89-12.89Z"/><path class="cls-13" d="M412.55,125.17s5.92.79,8.7-.06a21.6,21.6,0,0,0,6.19-3.61l-2.84,4.13,2.32-1.29a9.44,9.44,0,0,0-1.8,3.86c-.26,1.94.7,6.23.7,6.23s-3.2-5.17-4.83-6.48S412.55,125.17,412.55,125.17Z"/><path class="cls-13" d="M405.27,144.32c-.29,0-4.64,0-4.64,0l.77,3,2.45-.64s.51.25-.9,1.67a21.66,21.66,0,0,1-2.32,2.07l1.54,1.28a24.44,24.44,0,0,1,1.94-2.57,23.22,23.22,0,0,0,1.93-2.58,17.32,17.32,0,0,0-2.06,3.87,20.73,20.73,0,0,0-.65,4.12l1.94-.52a5.82,5.82,0,0,1,.13-2.57,28.36,28.36,0,0,1,1.41-3.61,5.25,5.25,0,0,1,0,2.32,5.56,5.56,0,0,0,.13,2.58l1.94-.13a13.53,13.53,0,0,1-.39-3.23c0-1.8.64-3-.52-3.73S406.3,144.19,405.27,144.32Z"/><path class="cls-13" d="M407.4,146c1-.86,2.61-1.09,3.75-1.84a15.71,15.71,0,0,0,3.38-3.08,59.69,59.69,0,0,0,4.34-6.42c.25-.38,1-1.61,1.45-.85.24.41-.29,1.35-.42,1.75a20.63,20.63,0,0,1-11.32,12.14,1.5,1.5,0,0,1-1.25.12,1.1,1.1,0,0,1-.1-1.66Z"/><path class="cls-13" d="M407.2,147.39s6.61,0,9.27-1.82c4.92-3.37,6.12-6.91,7.19-6.45s-1.55,4.37-6.21,7.69c-3.6,2.55-9,1.61-9.71,1.39S407.2,147.39,407.2,147.39Z"/><path class="cls-13" d="M404.75,144.7a17.09,17.09,0,0,1,1.42-8c1.8-3.74,4.12-6.32,4.9-5.93s-1.29,2.71-3.1,6.7c-1.37,3.05-1.8,7.48-2.45,7.74S404.75,144.7,404.75,144.7Z"/><g id="Ingredients-2" data-name="Ingredients"><path class="cls-3" d="M1080,96h-38a14,14,0,0,1-14-14V0h66V82A14,14,0,0,1,1080,96Z"/></g><path class="cls-42" d="M425,64h22a0,0,0,0,1,0,0V80.81A3.19,3.19,0,0,1,443.81,84H428.19A3.19,3.19,0,0,1,425,80.81V64A0,0,0,0,1,425,64Z"/><rect class="cls-42" x="420" y="68" width="5" height="3"/><rect class="cls-42" x="447" y="68" width="5" height="3"/><g id="Ingredients-3" data-name="Ingredients"><path class="cls-3" d="M1166,58h-38a14,14,0,0,1-14-14V0h66V44A14,14,0,0,1,1166,58Z"/></g><g id="FoodOrder"><path class="cls-1" d="M818,96H550a14,14,0,0,1-14-14V0H832V82A14,14,0,0,1,818,96Z"/></g><g id="FoodOrder-2" data-name="FoodOrder"><path class="cls-1" d="M994,96H866a14,14,0,0,1-14-14V0h156V82A14,14,0,0,1,994,96Z"/></g><rect class="cls-43" x="1200" width="180" height="25"/><rect class="cls-43" x="2232" width="156" height="25"/><rect class="cls-1" x="2408" width="156" height="25"/><rect class="cls-43" x="1600" width="296" height="25"/><rect class="cls-1" x="1916" width="296" height="25"/><rect class="cls-1" x="1400" width="180" height="25"/><path class="cls-44" d="M434.7,305A70.29,70.29,0,0,0,441,276c0-39.21-32-71-71.55-71a71.67,71.67,0,0,0-7.22.36l1.59-3.69c-.17.39-4.67.77-5.14.86-20.15,4.06-37.91,16.85-48.81,34.08-12.08,19.07-15.45,42.79-7.55,64a71.87,71.87,0,0,0,94.51,41c14.25-5.88,27.92-15.56,36.57-28.41.5-.74,4.14-7.62,3.7-7.71Z"/><ellipse class="cls-45" cx="378.97" cy="268.5" rx="69.03" ry="68.5"/><ellipse class="cls-46" cx="378.97" cy="268.5" rx="49.38" ry="49"/><path class="cls-47" d="M170.3,251.85h0a3.73,3.73,0,0,1-4.72-2.29l-3.73-10.72a3.7,3.7,0,0,1,2.31-4.69h0a3.72,3.72,0,0,1,4.72,2.28l3.73,10.72A3.69,3.69,0,0,1,170.3,251.85Z"/><path class="cls-47" d="M178.87,228.92c1.4,3.05-2.45,7.77-8.59,10.54s-16.9,2.62-18.29-.43,1.85-7.79,8-10.56S177.47,225.87,178.87,228.92Z"/><ellipse class="cls-48" cx="162.52" cy="233.99" rx="12.2" ry="6.07" transform="translate(-81.62 87.16) rotate(-24.2)"/><path class="cls-48" d="M168,253.13h0a3.22,3.22,0,0,1-4.08-2l-4.06-11.65a3.2,3.2,0,0,1,2-4.06h0a3.24,3.24,0,0,1,4.09,2L170,249.07A3.19,3.19,0,0,1,168,253.13Z"/><path class="cls-47" d="M211.8,248.41h0a7,7,0,0,1-6.34-7.63l2.05-21.41a7.05,7.05,0,0,1,7.68-6.3h0a7,7,0,0,1,6.34,7.63l-2.05,21.41A7.06,7.06,0,0,1,211.8,248.41Z"/><path class="cls-47" d="M141.3,344a70.29,70.29,0,0,1-6.25-29c0-39.21,32-71,71.55-71a71.67,71.67,0,0,1,7.22.36l-1.59-3.69c.17.39,4.67.77,5.14.86,20.15,4.06,37.91,16.85,48.81,34.08,12.08,19.07,15.45,42.79,7.55,64a71.87,71.87,0,0,1-94.51,41c-14.25-5.88-27.92-15.56-36.57-28.41-.5-.74-4.14-7.62-3.7-7.71Z"/><ellipse class="cls-48" cx="197.03" cy="310.5" rx="69.03" ry="68.5"/><ellipse class="cls-49" cx="197.03" cy="310.5" rx="49.38" ry="49"/><path class="cls-47" d="M244.75,215.5c0,6.35-10.38,11.5-23.18,11.5s-31.24-8.65-31.24-15,9.37-12,22.17-12S244.75,209.15,244.75,215.5Z"/><ellipse class="cls-48" cx="212.5" cy="211.5" rx="23.18" ry="11.5"/><path class="cls-48" d="M207.93,249l-2.14-.21a5,5,0,0,1-4.53-5.45l2.44-25.39a5,5,0,0,1,5.48-4.5l2.14.2a5,5,0,0,1,4.53,5.45l-2.43,25.39A5,5,0,0,1,207.93,249Z"/><path class="cls-50" d="M201.3,273.24h0a1.5,1.5,0,0,1-1.33-1.66l.57-5a1.51,1.51,0,0,1,1.67-1.32h0a1.5,1.5,0,0,1,1.33,1.66l-.57,5A1.51,1.51,0,0,1,201.3,273.24Z"/><path class="cls-50" d="M173.5,281.16h0a1.54,1.54,0,0,1-2.13-.24L168.24,277a1.5,1.5,0,0,1,.24-2.11h0a1.52,1.52,0,0,1,2.12.23l3.14,3.92A1.5,1.5,0,0,1,173.5,281.16Z"/><path class="cls-50" d="M159.48,306.26h0a1.51,1.51,0,0,1-1.67,1.32l-5-.56a1.52,1.52,0,0,1-1.33-1.66h0a1.51,1.51,0,0,1,1.67-1.32l5,.56A1.51,1.51,0,0,1,159.48,306.26Z"/><path class="cls-50" d="M167.46,333.85h0a1.5,1.5,0,0,1-.24,2.11l-3.95,3.11a1.51,1.51,0,0,1-2.12-.24h0a1.5,1.5,0,0,1,.24-2.11l4-3.11A1.52,1.52,0,0,1,167.46,333.85Z"/><path class="cls-50" d="M192.75,347.76h0a1.51,1.51,0,0,1,1.33,1.66l-.57,5a1.52,1.52,0,0,1-1.67,1.32h0a1.51,1.51,0,0,1-1.33-1.66l.57-5A1.52,1.52,0,0,1,192.75,347.76Z"/><path class="cls-50" d="M220.56,339.84h0a1.53,1.53,0,0,1,2.12.24l3.14,3.91a1.51,1.51,0,0,1-.24,2.11h0a1.52,1.52,0,0,1-2.12-.23L220.32,342A1.5,1.5,0,0,1,220.56,339.84Z"/><path class="cls-50" d="M234.57,314.74h0a1.51,1.51,0,0,1,1.67-1.32l5,.56a1.5,1.5,0,0,1,1.33,1.66h0a1.5,1.5,0,0,1-1.67,1.32l-5-.56A1.52,1.52,0,0,1,234.57,314.74Z"/><path class="cls-50" d="M226.6,287.15h0a1.5,1.5,0,0,1,.24-2.11l3.94-3.11a1.51,1.51,0,0,1,2.12.24h0a1.5,1.5,0,0,1-.24,2.11l-3.94,3.11A1.52,1.52,0,0,1,226.6,287.15Z"/><path class="cls-42" d="M1048.08,78h22.84a1,1,0,0,1,.78,1.62l-2.4,3a1,1,0,0,1-.78.38h-18a1,1,0,0,1-.78-.38l-2.4-3A1,1,0,0,1,1048.08,78Z"/><rect class="cls-42" x="1077" y="74" width="7" height="2"/><polygon class="cls-42" points="1071.03 80.03 1069.97 78.97 1074.69 74.25 1077.22 74.25 1077.22 75.75 1075.31 75.75 1071.03 80.03"/><path class="cls-51" d="M1067.51,74.49a3.89,3.89,0,0,1-1.84-2,1.84,1.84,0,0,1-.1-1.28,2,2,0,0,1,1.28-1.1,7.59,7.59,0,0,0,1.62-.64,2.32,2.32,0,0,0,1-1.86c0-1.75-1.57-2.19-2.87-2.77a1.7,1.7,0,0,1-1.15-1.41,1.76,1.76,0,0,1,.29-.83,4.84,4.84,0,0,1,2.72-2.06"/><path class="cls-51" d="M1059.51,74.49a3.89,3.89,0,0,1-1.84-2,1.84,1.84,0,0,1-.1-1.28,2,2,0,0,1,1.28-1.1,7.59,7.59,0,0,0,1.62-.64,2.32,2.32,0,0,0,1-1.86c0-1.75-1.57-2.19-2.87-2.77a1.7,1.7,0,0,1-1.15-1.41,1.76,1.76,0,0,1,.29-.83,4.84,4.84,0,0,1,2.72-2.06"/><path class="cls-51" d="M1052.51,74.49a3.89,3.89,0,0,1-1.84-2,1.84,1.84,0,0,1-.1-1.28,2,2,0,0,1,1.28-1.1,7.59,7.59,0,0,0,1.62-.64,2.32,2.32,0,0,0,1-1.86c0-1.75-1.57-2.19-2.87-2.77a1.7,1.7,0,0,1-1.15-1.41,1.76,1.76,0,0,1,.29-.83,4.84,4.84,0,0,1,2.72-2.06"/><circle class="cls-33" cx="86" cy="222" r="16"/><path d="M86,242a20,20,0,1,1,20-20A20,20,0,0,1,86,242Zm0-35.12A15.12,15.12,0,1,0,101.12,222,15.13,15.13,0,0,0,86,206.88Z"/><path d="M95.39,222.8a12.45,12.45,0,0,0-.7-2.89c-.41-1.07-1.2-2.66-2.46-2.88-.93-.17-.24.23-.61,2s-1.36,2.19-1.41,2.15A14.88,14.88,0,0,0,88,215.46c-2-2.84-4.42-4.21-4.73-4.15-.54.1,1.21,2.13.39,5.2-.75,2.85-1.63,3.38-1.63,3.38a5.82,5.82,0,0,0-1.55-2.54,3.65,3.65,0,0,0-2.43-1c.23,2.09,1.69,4,.65,6.11a24.54,24.54,0,0,1-1.61,2.22c-1.38,2.19-.47,4.83,1.37,6.4A9.35,9.35,0,0,0,81,232.62a7.2,7.2,0,0,1,0-1.73,21.34,21.34,0,0,1,2-5.14c.14,0,.79.53,1.5,1.6a17.21,17.21,0,0,1,.85,1.55,5.51,5.51,0,0,0,.82-2.13,23.57,23.57,0,0,0,0-2.73c.17,0,3.91,2.16,4.8,5.58a7.54,7.54,0,0,1,.23,2.88,9.23,9.23,0,0,0,2.51-1.62C95.94,228.8,95.76,225.63,95.39,222.8Z"/><path class="cls-33" d="M525.13,210.6l-34.32,58.77a2.16,2.16,0,0,0,1.87,3.25h68.64a2.16,2.16,0,0,0,1.87-3.25L528.87,210.6A2.17,2.17,0,0,0,525.13,210.6Z"/><path class="cls-52" d="M561.34,276.08H492.66a5.68,5.68,0,0,1-4.9-2.8,5.55,5.55,0,0,1,0-5.6l34.33-58.8a5.71,5.71,0,0,1,9.82,0l34.33,58.8a5.55,5.55,0,0,1,0,5.6A5.68,5.68,0,0,1,561.34,276.08ZM495,269.17H559l-32-54.85Z"/><path class="cls-1" d="M530.68,233.6c0,2.54-1.65,18.4-3.68,18.4s-3.68-15.86-3.68-18.4S525,229,527,229,530.68,231.06,530.68,233.6Z"/><circle class="cls-1" cx="527" cy="260" r="4"/><circle class="cls-53" cx="611" cy="235" r="23"/><path class="cls-54" d="M611,260a25,25,0,1,1,25-25A25,25,0,0,1,611,260Zm0-46a21,21,0,1,0,21,21A21,21,0,0,0,611,214Z"/><polygon class="cls-1" points="608.06 236.69 601.94 230.56 596.1 236.4 608.35 248.65 631.4 225.6 625.27 219.48 608.06 236.69"/></svg>